<?xml version="1.0" encoding="utf-8"?>
<!-- Generator: Adobe Illustrator 24.1.3, SVG Export Plug-In . SVG Version: 6.00 Build 0)  -->
<svg version="1.1" id="Layer_1" xmlns="http://www.w3.org/2000/svg" xmlns:xlink="http://www.w3.org/1999/xlink" x="0px" y="0px"
	 viewBox="0 0 380.7 200" style="enable-background:new 0 0 380.7 200;" xml:space="preserve">
<style type="text/css">
	.st0{fill:#F05A2D;}
	.st1{fill:#FFFFFF;}
</style>
<g>
	<path class="st0" d="M363,99.6c0,48.3-38.5,87.4-86,87.4c-47.5,0-86-39.1-86-87.4c0-48.3,38.5-87.4,86-87.4
		C324.5,12.1,363,51.3,363,99.6z"/>
	<g>
		<path class="st1" d="M218.7,122.3c-5.5,0-10.3-1.7-14.4-5.1c-4.1-3.4-6.8-7.8-8.1-13.2c-0.1-0.4-0.1-0.7-0.1-1v0
			c-0.2-1.3-0.4-2.7-0.4-4c0-1.3,0.1-2.7,0.4-4.1c0,0,0,0,0,0c0-0.3,0-0.5,0.1-0.7l0,0l0,0l0-0.1v0c1.1-5.3,3.7-9.7,7.9-13.2
			c4.2-3.4,9.1-5.2,14.6-5.2c5.3,0,10.1,1.7,14.3,5.1l0.1,0l0.2,0.1c0.1,0.1,0.3,0.3,0.6,0.5l0.1,0l0.1,0.1l0.3,0.2V57v0
			c0.1-2.3,1.6-3.8,3.6-3.8h0.1c2.1,0,3.5,1.5,3.6,3.8l0,0v41.8c0,6.5-2.3,12-6.7,16.6C230.5,119.9,225,122.3,218.7,122.3
			L218.7,122.3z M215.1,114.8c0.1,0,0.1,0,0.2,0.1c0.1,0,0.1,0,0.2,0c0.3,0,0.5,0.1,0.9,0.1c0.1,0,0.4,0.1,0.4,0.1c0,0,0.1,0,0.1,0
			c0,0,0.1,0,0.1,0c0.5,0,1,0.1,1.4,0.1h0.2c2.2,0,4.3-0.4,6.3-1.3c5.9-2.6,9.7-8.4,9.7-14.9c0-0.3,0-0.7-0.1-1c0-0.1,0-0.2,0-0.4
			c0-0.1,0-0.2,0-0.3c-0.1-0.4-0.1-0.8-0.2-1.1c0-0.2-0.1-0.3-0.1-0.5c-1.5-7.5-8.1-12.9-15.7-12.9c-0.5,0-0.9,0-1.4,0.1l-0.2,0
			c0,0-0.1,0-0.1,0h0l-0.1,0h-0.1c-0.4,0.1-0.9,0.1-1.3,0.2c-0.1,0-0.2,0-0.3,0.1l-0.1,0c-0.4,0.1-0.8,0.2-1.1,0.3l-0.1,0
			c-0.1,0-0.2,0-0.2,0.1l-0.1,0l-0.1,0c-0.4,0.1-0.7,0.2-1.1,0.4l0,0c-0.1,0-0.2,0.1-0.3,0.1l-0.1,0l-0.2,0.1
			c-0.3,0.1-0.5,0.2-0.8,0.4l0,0c-0.1,0-0.2,0.1-0.3,0.1l0,0c-0.3,0.1-0.6,0.3-0.9,0.5l-0.1,0c-0.1,0.1-0.2,0.1-0.3,0.2l0,0
			c-0.2,0.2-0.5,0.3-0.7,0.5l-0.1,0.1c-0.1,0.1-0.1,0.1-0.2,0.2l-0.1,0.1c-0.2,0.2-0.5,0.5-0.8,0.7c-0.1,0.1-0.1,0.1-0.2,0.2
			c0,0-0.1,0.1-0.1,0.1c-0.1,0.1-0.2,0.2-0.3,0.3c-0.2,0.3-0.5,0.5-0.7,0.7l0,0l0,0c-0.1,0.1-0.1,0.2-0.2,0.3
			c-0.1,0.1-0.1,0.2-0.2,0.3c-0.1,0.1-0.2,0.3-0.3,0.4c0,0.1-0.1,0.1-0.1,0.2c-0.1,0.2-0.2,0.4-0.4,0.6l-0.1,0.2
			c-0.1,0.1-0.2,0.3-0.3,0.5l-0.1,0.1c-0.1,0.2-0.2,0.5-0.4,0.7c0,0.1-0.1,0.2-0.1,0.3c0,0,0,0.1-0.1,0.1l-0.1,0.1
			c-0.1,0.3-0.2,0.5-0.3,0.8l0,0.1l0,0.1c0,0.1-0.1,0.1-0.1,0.3l-0.1,0.3c-0.1,0.3-0.2,0.5-0.3,0.8c0,0.1,0,0.1,0,0.2
			c0,0.1,0,0.1,0,0.1l0,0c-0.1,0.4-0.2,0.8-0.3,1.2c-0.1,0.9-0.2,1.9-0.2,2.8c0,1,0.1,1.9,0.2,2.7l0,0c0,0.3,0.1,0.7,0.2,1.2v0
			l0,0.1c0,0,0,0.1,0,0.1l0.1,0.2c0.1,0.3,0.2,0.6,0.3,0.9l0,0l0,0c0,0,0,0.1,0,0.1c0,0.1,0,0.1,0.1,0.2c0,0.1,0.1,0.2,0.1,0.3
			c0.1,0.2,0.2,0.5,0.3,0.7v0c0,0.1,0.1,0.2,0.1,0.3l0.1,0.2c0.1,0.3,0.3,0.5,0.4,0.8c0,0.1,0.1,0.1,0.1,0.2c0,0.1,0.1,0.1,0.1,0.2
			c0,0.1,0.1,0.1,0.1,0.2c0.1,0.2,0.3,0.4,0.4,0.6l0,0c0,0.1,0.1,0.1,0.1,0.2c0,0.1,0.1,0.1,0.1,0.2c0.2,0.4,0.6,0.7,0.9,1.1
			c0.1,0.1,0.3,0.3,0.4,0.4c0.1,0.1,0.2,0.2,0.3,0.3l0,0c0.1,0.1,0.2,0.2,0.3,0.3c0.1,0.1,0.2,0.2,0.3,0.3c0.1,0.1,0.3,0.2,0.4,0.3
			c0.1,0,0.1,0.1,0.2,0.1c0.1,0,0.1,0.1,0.2,0.1l0,0c0.2,0.2,0.5,0.4,0.8,0.6l0,0l0,0c0,0,0.1,0.1,0.2,0.1c0.1,0,0.1,0.1,0.2,0.1
			l0.1,0c0.2,0.1,0.4,0.2,0.5,0.4c0.1,0,0.2,0.1,0.3,0.2c0,0,0.1,0,0.1,0c0.1,0,0.2,0.1,0.4,0.2c0.3,0.2,0.6,0.3,0.9,0.4
			c0.1,0.1,0.3,0.1,0.4,0.2l0.1,0l0,0c0.3,0.1,0.7,0.3,1,0.4c0.1,0,0.1,0,0.2,0.1c0.1,0,0.1,0.1,0.2,0.1l0,0l0,0
			C214.4,114.6,214.7,114.7,215.1,114.8L215.1,114.8z"/>
		<path class="st1" d="M265.2,122.2c-5.2,0-9.6-1.6-13.1-4.6l-1-1v0c-4.4-4.7-6.7-9.7-6.7-15c0-9.4,6.9-15.9,6.9-16l0.1,0l0,0
			c4-3.5,8.6-5.3,13.7-5.3h0.1c4.8,0,9.2,1.5,12.9,4.6c3.5,2.9,5.8,6.6,7,11.1h0l0.2,0.8c0.1,0.3,0.1,0.6,0.1,0.9
			c0,0.4-0.1,0.8-0.3,1.2c-0.4,1.4-1.6,2.4-2.9,2.4h-27.6c-1.3,0-2.5-0.9-2.9-2.2c-0.1,0.7-0.2,1.4-0.2,2.1c0,3.9,1.3,7.1,4,9.8
			c2.7,2.7,5.8,4,9.7,4c3.1,0,5.8-0.9,8.2-2.8c1.8-1.4,3.2-3.1,4.1-5.1l0.1-0.1c0.7-1.6,1.9-2.5,3.3-2.5h0.1c0.2,0,0.6,0,0.9,0.1
			c1.8,0.4,2.9,1.5,2.9,3c0,0.5-0.1,1-0.4,1.6c-1.5,3.6-3.2,5.9-6.2,8.4C274.5,120.6,270.1,122.2,265.2,122.2z M265.2,87.3
			c-3.8,0-7,1.3-9.7,4.1c-1,1.1-1.8,2.2-2.4,3.3c0.4-0.3,1-0.4,1.5-0.4H277c-0.9-1.6-2.1-3-3.7-4.2C271,88.2,268.3,87.3,265.2,87.3z
			"/>
		<path class="st1" d="M310.3,122.4c-12.7,0-22.9-10.5-22.9-23.3c0-1.7,0.2-3.4,0.5-5v0l0-0.1c1.1-5.3,3.8-9.7,7.9-13.1
			c4.2-3.4,9-5.2,14.5-5.2c5.8,0,10.7,1.7,14.5,5.2l0.8,0.7c0.1,0.1,0.2,0.2,0.3,0.2v-2.4v0c0.1-2.2,1.5-3.7,3.6-3.7h0.1h0.1
			c2.1,0,3.5,1.5,3.6,3.7v0.1v39.2v0c-0.1,2.2-1.5,3.7-3.6,3.7h-0.2c-2.1,0-3.5-1.4-3.6-3.7v-0.1v-2.3
			C321.6,120.2,316.1,122.4,310.3,122.4z M310.3,83.6c-8.4,0-15.2,6.9-15.2,15.4c0,8.5,6.8,15.4,15.2,15.4c8.4,0,15.2-6.9,15.2-15.4
			C325.5,90.5,318.7,83.6,310.3,83.6z"/>
		<path class="st1" d="M357.9,114.6c-3.2-0.9-5.8-2.8-8-5.6c-2.1-2.9-3.1-6-3.2-9.5V56.3l0,0c-0.2-1.8-1.6-2.9-3.7-2.9
			c0,0-0.1,0-0.1,0h-0.1c-2,0-3.4,1.1-3.6,2.9v0.1v43c0,5.6,1.7,10.6,5.1,14.8c3.4,4.2,7.7,7,12.9,8h0h0c0.1,0,1.3,0.4,1.5,0.4
			l1,0.3c0.6-2.2,1.1-4.4,1.5-6.6C360.8,115.8,358.7,114.7,357.9,114.6z"/>
		<path class="st1" d="M285.3,147.1c-2.6,0-4.9-1-6.8-2.9c-1.9-1.9-2.8-4.2-2.8-6.9c0-2.7,1-5,2.8-6.9c1.9-1.9,4.2-2.9,6.9-2.9
			c2.1,0,3.9,0.6,5.6,1.8c1.7,1.2,2.8,2.8,3.5,4.7l0,0.1v0.1v0c0,0.1,0,0.2,0,0.3c0,0.5-0.2,1-0.6,1.3c-0.3,0.2-0.7,0.3-1.2,0.3
			c-0.7,0-1.3-0.3-1.6-0.8l-0.1-0.1l0-0.1c0-0.1-0.1-0.2-0.1-0.3c0-0.1,0-0.2-0.1-0.2c-0.5-1-1.2-1.8-2.2-2.4c-1-0.7-2.1-1-3.3-1
			c-1.7,0-3.1,0.6-4.4,1.8c-1.2,1.2-1.8,2.7-1.8,4.5c0,1.7,0.6,3.2,1.8,4.4c1.2,1.2,2.7,1.9,4.4,1.9c1.2,0,2.3-0.3,3.3-1
			c1-0.7,1.8-1.6,2.3-2.6c0-0.1,0.1-0.3,0.1-0.5l0-0.1l0-0.1c0.3-0.5,0.9-0.9,1.5-0.9h0.1c0.4,0,0.9,0.2,1.2,0.5
			c0.4,0.3,0.6,0.7,0.6,1.1c0,0.2,0,0.3,0,0.4l0,0.1l0,0c-0.7,2-1.9,3.6-3.5,4.8C289.3,146.5,287.4,147.1,285.3,147.1L285.3,147.1z
			 M306.3,147.1c-2.3,0-4.3-0.7-6-2.1c-1.4-1.1-2.4-2.5-3-4.2c0,0,0,0,0-0.1l0,0c-0.4-0.9-0.6-2-0.6-3.2c0-0.7,0.1-1.4,0.2-2.2
			l0-0.2l0,0c0,0,0-0.1,0-0.1c0-0.1,0.1-0.2,0.1-0.3c0-0.2,0.1-0.3,0.1-0.5c0.1-0.2,0.1-0.4,0.2-0.5v0l0-0.1
			c0.1-0.2,0.1-0.3,0.1-0.3l0.1-0.4h0.1c0.6-1.2,1.4-2.3,2.6-3.2c1.7-1.4,3.8-2.2,6.1-2.2c2.7,0,5,1,6.8,2.9
			c1.9,1.9,2.9,4.3,2.8,6.9c0,2.7-0.9,5-2.8,6.9C311.2,146.1,308.9,147.1,306.3,147.1L306.3,147.1z M300.5,139.7
			c0.4,1,1.1,1.9,2,2.6c1.1,0.8,2.3,1.3,3.7,1.3c1.7,0,3.2-0.6,4.4-1.9c1.2-1.2,1.8-2.7,1.8-4.4c0-1.7-0.6-3.2-1.8-4.5
			c-1.2-1.2-2.6-1.8-4.4-1.8c-1.4,0-2.6,0.4-3.8,1.3c-0.8,0.6-1.3,1.3-1.8,2.2l0,0l0,0.1c0,0,0,0,0,0.1l0,0l0,0
			c0,0.1-0.1,0.2-0.1,0.4c0,0.1,0,0.1,0,0.2c-0.2,0.6-0.3,1.2-0.3,1.9C300.2,138.3,300.4,139.3,300.5,139.7z M270.5,146.9
			c-0.9,0-1.7-0.4-2.5-1.1c-0.7-0.8-1.1-1.6-1.1-2.5c0-1,0.4-1.9,1.1-2.6c0.7-0.7,1.6-1,2.5-1c1,0,1.9,0.3,2.5,1
			c0.7,0.7,1,1.5,1,2.6c0,0.9-0.3,1.8-1,2.5C272.4,146.5,271.5,146.9,270.5,146.9z M331.7,146.6c-0.6,0-1.1-0.4-1.4-0.9
			c-0.1-0.2-0.1-0.5-0.1-0.7v-9.6c0-2.4-2-4.4-4.4-4.4c-2.4,0-4.4,2-4.4,4.4v9.6c0,0.4-0.2,0.8-0.4,1.1c-0.3,0.3-0.7,0.5-1.1,0.5
			c-0.9,0-1.6-0.7-1.6-1.6v-9.6c0-4.2,3.4-7.6,7.5-7.6c2.3,0,4.5,1.1,5.9,3c1.4-1.8,3.6-3,5.9-3c4.1,0,7.4,3.4,7.4,7.6v9.6
			c0,0.8-0.7,1.6-1.5,1.6c-0.8,0-1.5-0.7-1.5-1.6v-9.6c0-2.4-2-4.4-4.4-4.4c-2.4,0-4.4,2-4.4,4.4v9.6c0,0.4-0.1,0.8-0.4,1.1
			C332.5,146.5,332.1,146.6,331.7,146.6z"/>
	</g>
	<path d="M163.5,122.7c-2.9,0-3.4-1.9-3.5-2.7v0v-20c0-5.3,1.7-10.1,4.9-14.2c3.3-4.1,7.4-6.7,12.4-7.8c0.2,0,0.5-0.1,0.7-0.1
		c0.8,0,1.5,0.3,2,1c0.6,0.7,0.9,1.6,0.9,2.6c0,1.1-0.4,3-3.2,3.5c-3.2,1-5.8,2.8-7.8,5.4c-2.1,2.7-3.1,5.9-3.1,9.3v20.2l0,0.1
		C166.8,120.8,166.3,122.7,163.5,122.7z"/>
	<path d="M57.3,144.8c-0.8,0-2.7-0.3-2.7-3.6c0-1.1,0.4-3,3.1-3.5c3.2-0.9,5.9-2.8,7.9-5.5c2.1-2.8,3.1-5.8,3.1-9.4V81.1v-0.1
		c0.1-0.8,0.6-2.7,3.4-2.7c1.9,0,3.2,1,3.4,2.7v0.1v41.7c0,5.4-1.7,10.1-4.9,14.2c-3.2,4.1-7.4,6.6-12.3,7.7
		C57.9,144.8,57.6,144.8,57.3,144.8z"/>
	<path d="M72.1,74.8c-1.9,0-3.4-1.5-3.4-3.4s1.5-3.4,3.4-3.4c1.8,0,3.4,1.5,3.4,3.4S73.9,74.8,72.1,74.8z"/>
	<path d="M132.6,122.5c-5,0-9.2-1.5-12.4-4.4l-0.7-0.6l0,0c-4.5-4.6-6.7-9.7-6.6-14.9c0.1-8.6,6.3-14.6,6.5-14.9l0,0
		c3.8-3.4,8.3-5.1,13.2-5.1c4.7,0,8.9,1.5,12.3,4.4c3.5,2.9,5.8,6.7,6.9,11.3v0.1c0,0.2,0.1,0.4,0.1,0.6c0,0.1,0.1,0.2,0.1,0.4
		c0,1.7-1.3,3.1-2.8,3.1h-26.7c-1.5,0-2.8-1.4-2.8-3.1c0-0.1,0-0.1,0-0.2c-0.3,1.1-0.4,2.3-0.4,3.5c0,3.9,1.3,7,3.9,9.7
		c2.7,2.7,5.8,4,9.6,4c3,0,5.8-0.9,8.1-2.8c2.4-1.9,3.1-2.4,3.9-5.3c0.6-2.5,2.3-2.9,3.3-2.9c1.2,0,2.1,0.3,2.7,1
		c0.3,0.4,0.7,1.2,0.4,2.4c-0.9,4.5-2.3,6.5-5.9,9.4C141.5,121,137.3,122.5,132.6,122.5z M132.6,88.8c-3.8,0-6.9,1.3-9.6,4
		c-1.3,1.4-2.3,2.9-3,4.5c0.5-0.8,1.3-1.3,2.3-1.3h22.1c-0.9-1.8-2.2-3.2-3.8-4.5C138.3,89.7,135.7,88.8,132.6,88.8z"/>
	<path d="M89.7,122.7c-2,0-3.3-1.3-3.4-3.4v0V73.6v0c0.1-2.2,1.4-3.4,3.4-3.4c2.1,0,3.4,1.3,3.5,3.5l0,0v25l6.5-6.6
		c0.7-0.7,1.6-1.1,2.5-1.1c0.9,0,1.7,0.4,2.4,1.1c0.7,0.7,1.1,1.6,1.1,2.5c0,1-0.4,1.8-1.1,2.5l-7.5,7.7l11.5,11.7
		c0.7,0.8,1.1,1.6,1.1,2.5c0,0.9-0.4,1.7-1.1,2.4c-0.7,0.7-1.5,1.1-2.4,1.1c-0.9,0-1.7-0.4-2.5-1.1l0,0l-10.5-10.7v8.5l0,0
		C93.1,121.4,91.8,122.7,89.7,122.7z"/>
	<path d="M37.5,121.8c-11.7,0-21.2-9.6-21.2-21.5c0-1.5,0.2-3.1,0.5-4.7c1-4.9,3.5-9,7.3-12.1c3.8-3.2,8.3-4.8,13.3-4.8
		c5.4,0,9.9,1.6,13.4,4.7l0.8,0.7l0,0c0.4,0.4,0.8,0.6,1,0.6c0-0.1,0.1-0.3,0.1-0.8v-2.3v0c0.1-1.8,1.2-2.9,2.9-2.9h0.2
		c1.7,0,2.8,1.2,2.9,3l0,37.1c-0.1,1.8-1.2,3-2.9,3h-0.2c-1.7,0-2.8-1.2-2.9-3v0v-2.2c0-0.5-0.1-0.7-0.2-0.8c-0.1,0-0.3,0.1-0.5,0.2
		C48.1,119.6,42.9,121.8,37.5,121.8z M37.5,85.1c-8.2,0-14.9,6.8-14.9,15.1c0,8.4,6.7,15.1,14.9,15.1c8.2,0,14.9-6.8,14.9-15.1
		C52.4,91.9,45.7,85.1,37.5,85.1z"/>
</g>
</svg>
